<?xml version="1.0" encoding="utf-8"?>
<!-- Generator: Adobe Illustrator 16.0.3, SVG Export Plug-In . SVG Version: 6.00 Build 0)  -->
<!DOCTYPE svg PUBLIC "-//W3C//DTD SVG 1.1//EN" "http://www.w3.org/Graphics/SVG/1.1/DTD/svg11.dtd">
<svg version="1.1" id="layer_1" xmlns="http://www.w3.org/2000/svg" xmlns:xlink="http://www.w3.org/1999/xlink" x="0px"
	 y="0px" width="1578.379px" height="771.621px" viewBox="0 0 1578.379 771.621" enable-background="new 0 0 1578.379 771.621"
	 xml:space="preserve">
<path fill="#2A2B2B" d="M1510,229.037c0,5.943-4.819,10.765-10.764,10.765H53.365c-5.945,0-10.764-4.819-10.764-10.765V49.089
	c0-5.944,4.819-10.764,10.764-10.764h1445.871c5.942,0,10.764,4.818,10.764,10.764V229.037z"/>
<path fill="#2A2B2B" d="M725.707,711.921c0,5.941-4.818,10.764-10.764,10.764H491.597c-5.943,0-10.764-4.82-10.764-10.764V237.97
	c0-5.944,4.819-10.765,10.764-10.765h223.348c5.943,0,10.764,4.818,10.764,10.765L725.707,711.921L725.707,711.921z"/>
<path fill="#2A2B2B" d="M1077.469,711.921c0,5.941-4.816,10.764-10.764,10.764H821.359c-5.945,0-10.766-4.82-10.766-10.764V566.971
	c0-5.945,4.818-10.764,10.766-10.764h245.346c5.945,0,10.764,4.816,10.764,10.764V711.921z"/>
<path fill="#2A2B2B" d="M435.469,711.921c0,5.941-4.816,10.764-10.764,10.764H179.359c-5.945,0-10.764-4.82-10.764-10.764V566.971
	c0-5.945,4.818-10.764,10.764-10.764h245.346c5.945,0,10.764,4.816,10.764,10.764V711.921z"/>
<polyline fill="none" stroke="#429884" stroke-width="8" stroke-miterlimit="10" points="388.895,176.895 388.895,316.001 
	550,316.001 550,597.061 "/>
<polyline id="AdapterToHadoop" fill="none" stroke="#FFFFFF" stroke-width="5" stroke-miterlimit="10" points="388.895,176.895 
	388.895,316.001 550,316.001 550,597.061 "/>
<path fill="#2A2B2B" d="M1390.469,711.921c0,5.941-4.816,10.764-10.764,10.764h-245.346c-5.945,0-10.766-4.82-10.766-10.764V566.971
	c0-5.945,4.818-10.764,10.766-10.764h245.346c5.945,0,10.764,4.816,10.764,10.764V711.921z"/>

	
<g id="Hadoop" class="addTooltip showRight">
		<path fill="#727272" d="M603.271,664.873c0,5.242-4.252,9.496-9.497,9.496h-58.959c-5.246,0-9.497-4.254-9.497-9.496v-58.959
		c0-5.242,4.251-9.494,9.497-9.494h58.959c5.245,0,9.497,4.252,9.497,9.494V664.873z"/>
		<path fill="#FFFFFF" d="M595.949,633.028c0-0.447-0.188-0.842-0.514-1.186c0.265-0.27,0.443-0.568,0.516-0.904l-0.002-1.477
			c0-1.816-3.098-2.801-6.009-2.801c-2.912,0-6.011,0.982-6.011,2.803l0.002,1.439l0.006,0.033c0.067,0.334,0.244,0.633,0.509,0.902
			c-0.327,0.344-0.517,0.738-0.517,1.188l0.002,0.809h-10.296v-2.121c0-0.691-0.291-1.309-0.798-1.842
			c0.41-0.416,0.69-0.891,0.798-1.408v-2.293c0-1.176-0.833-2.123-2.127-2.834l5.068-5.068c1.079,0.961,3.281,1.461,5.358,1.461
			c2.729,0,5.675-0.854,6.013-2.494l-0.002-1.473c0-0.447-0.188-0.842-0.512-1.186c0.264-0.271,0.441-0.57,0.514-0.906l-0.002-1.475
			c0-0.443-0.188-0.842-0.512-1.186c0.264-0.27,0.441-0.568,0.514-0.904l-0.002-1.475c0-0.447-0.188-0.844-0.512-1.186
			c0.264-0.27,0.441-0.571,0.514-0.905l-0.002-1.476c0.002-1.817-3.098-2.801-6.011-2.801c-2.909,0-6.007,0.98-6.007,2.801
			l0.001,1.443l0.004,0.031c0.068,0.33,0.245,0.635,0.512,0.9c-0.329,0.344-0.517,0.74-0.517,1.188l0.001,1.441l0.004,0.031
			c0.068,0.334,0.245,0.635,0.512,0.902c-0.329,0.344-0.517,0.741-0.517,1.188l0.001,1.443l0.004,0.028
			c0.042,0.209,0.134,0.399,0.252,0.581l-7.951,7.955c-1.254-0.26-2.61-0.393-3.942-0.393c-1.333,0-2.688,0.133-3.941,0.393
			l-7.95-7.95c0.119-0.185,0.212-0.377,0.255-0.586v-1.474c0-0.445-0.188-0.842-0.515-1.186c0.267-0.271,0.443-0.57,0.515-0.906
			v-1.473c0-0.447-0.188-0.844-0.515-1.188c0.267-0.268,0.443-0.57,0.515-0.904v-1.475c-0.001-1.818-3.099-2.801-6.009-2.801
			c-2.914,0-6.011,0.98-6.011,2.801l0.001,1.443l0.004,0.029c0.069,0.332,0.247,0.637,0.512,0.902
			c-0.328,0.344-0.517,0.74-0.517,1.188l0.001,1.442l0.004,0.031c0.069,0.334,0.247,0.635,0.512,0.901
			c-0.328,0.345-0.517,0.741-0.517,1.188l0.001,1.443l0.004,0.027c0.069,0.334,0.247,0.639,0.512,0.904
			c-0.328,0.344-0.517,0.738-0.517,1.188l0.001,1.439l0.004,0.031c0.337,1.637,3.274,2.494,6.006,2.494
			c2.076,0,4.278-0.5,5.361-1.461l5.066,5.066c-1.295,0.711-2.127,1.66-2.127,2.834l0.002,2.244l0.005,0.049
			c0.106,0.52,0.386,0.986,0.792,1.402c-0.508,0.537-0.799,1.152-0.799,1.848l0.002,2.121h-10.298v-0.807
			c0-0.447-0.188-0.842-0.514-1.188c0.265-0.268,0.443-0.568,0.514-0.902v-1.479c0-1.816-3.098-2.799-6.009-2.799
			c-2.912,0-6.009,0.979-6.009,2.799v1.443l0.004,0.033c0.068,0.332,0.247,0.633,0.511,0.898c-0.327,0.347-0.516,0.742-0.516,1.189
			v1.442l0.004,0.03c0.068,0.332,0.247,0.636,0.511,0.902c-0.327,0.344-0.516,0.739-0.516,1.186v1.443l0.004,0.031
			c0.068,0.336,0.247,0.635,0.511,0.9c-0.327,0.345-0.516,0.742-0.516,1.188v1.441l0.004,0.031c0.338,1.637,3.276,2.492,6.006,2.492
			c2.727,0,5.67-0.855,6.007-2.492v-1.475c0-0.445-0.188-0.841-0.514-1.186c0.265-0.27,0.443-0.568,0.514-0.905v-1.114h10.315
			c-0.012,0.102-0.021,0.203-0.021,0.309l0.002,2.242l0.005,0.047c0.107,0.521,0.386,0.988,0.792,1.406
			c-0.508,0.533-0.799,1.151-0.799,1.848l0.002,2.244l0.005,0.047c0.2,0.968,0.982,1.759,2.109,2.369l-5.068,5.066
			c-1.063-0.966-3.255-1.475-5.352-1.475c-2.913,0-6.01,0.984-6.01,2.805l0.003,1.439l0.003,0.031
			c0.068,0.334,0.247,0.637,0.511,0.904c-0.327,0.344-0.517,0.736-0.517,1.188l0.003,1.441l0.003,0.029
			c0.068,0.334,0.247,0.637,0.511,0.904c-0.327,0.344-0.517,0.74-0.517,1.188l0.003,1.441l0.003,0.031
			c0.068,0.334,0.247,0.635,0.511,0.904c-0.327,0.342-0.517,0.736-0.517,1.188l0.003,1.441l0.003,0.03
			c0.337,1.64,3.273,2.491,6.004,2.491c2.727,0,5.67-0.854,6.01-2.489l-0.001-1.476c0-0.447-0.188-0.842-0.513-1.186
			c0.264-0.271,0.442-0.57,0.514-0.904l-0.001-1.478c0-0.442-0.188-0.841-0.513-1.185c0.264-0.268,0.442-0.57,0.514-0.906
			l-0.001-1.473c0-0.318-0.097-0.609-0.271-0.877l7.965-7.963c1.257,0.258,2.615,0.389,3.943,0.389c1.327,0,2.688-0.131,3.946-0.389
			l7.961,7.963c-0.172,0.268-0.27,0.559-0.27,0.877l0.001,1.443l0.005,0.027c0.067,0.336,0.244,0.636,0.511,0.904
			c-0.329,0.344-0.517,0.74-0.517,1.187l0.001,1.442l0.005,0.033c0.067,0.334,0.244,0.633,0.511,0.901
			c-0.329,0.343-0.517,0.739-0.517,1.188l0.001,1.443l0.005,0.029c0.339,1.637,3.273,2.49,6.002,2.49c2.729,0,5.674-0.854,6.012-2.49
			v-1.475c0-0.447-0.188-0.842-0.513-1.186c0.263-0.271,0.442-0.57,0.513-0.904v-1.478c0-0.442-0.188-0.841-0.513-1.185
			c0.263-0.268,0.442-0.57,0.513-0.906v-1.473c0-0.447-0.188-0.844-0.513-1.186c0.263-0.271,0.442-0.57,0.513-0.904v-1.477
			c0-1.816-3.1-2.801-6.012-2.801c-2.096,0-4.284,0.51-5.35,1.473l-5.064-5.064c1.128-0.609,1.912-1.402,2.111-2.371v-2.291
			c0-0.693-0.291-1.31-0.798-1.844c0.41-0.416,0.69-0.889,0.798-1.406v-2.293c0-0.104-0.009-0.207-0.021-0.308h10.313l0.003,1.082
			l0.005,0.03c0.067,0.336,0.245,0.636,0.509,0.902c-0.327,0.346-0.517,0.742-0.517,1.188l0.003,1.443l0.005,0.033
			c0.337,1.635,3.275,2.489,6.005,2.489c2.726,0,5.671-0.854,6.009-2.489l-0.002-1.479c0-0.443-0.188-0.84-0.514-1.184
			c0.265-0.269,0.443-0.57,0.516-0.906l-0.002-1.473c0-0.445-0.188-0.843-0.514-1.186c0.265-0.271,0.443-0.57,0.516-0.905
			L595.949,633.028z M581.939,603.593c2.904,0,4.687,0.955,4.687,1.477c0,0.522-1.78,1.479-4.687,1.479
			c-2.907,0-4.687-0.957-4.687-1.479C577.254,604.548,579.033,603.593,581.939,603.593z M577.56,608.199
			c1.176,0.555,2.813,0.836,4.382,0.836c1.566,0,3.208-0.281,4.382-0.834c0.198,0.154,0.305,0.309,0.305,0.434
			c0,0.521-1.78,1.477-4.687,1.477c-2.907,0-4.687-0.955-4.687-1.477C577.255,608.509,577.362,608.356,577.56,608.199z
			M577.56,611.764c1.176,0.553,2.813,0.836,4.382,0.836c1.566,0,3.208-0.283,4.382-0.836c0.198,0.158,0.305,0.309,0.305,0.434
			c0,0.521-1.78,1.479-4.687,1.479c-2.907,0-4.687-0.957-4.687-1.479C577.255,612.073,577.362,611.921,577.56,611.764z
			M577.56,615.328c1.176,0.553,2.813,0.836,4.382,0.836c1.566,0,3.208-0.283,4.382-0.836c0.198,0.156,0.305,0.309,0.305,0.436
			c0,0.52-1.78,1.477-4.687,1.477c-2.907,0-4.687-0.957-4.687-1.477C577.255,615.635,577.362,615.485,577.56,615.328z
			M546.646,617.239c-2.905,0-4.686-0.957-4.686-1.477c0-0.127,0.105-0.277,0.303-0.436c1.176,0.553,2.813,0.836,4.381,0.836
			c1.566,0,3.206-0.283,4.383-0.836c0.194,0.156,0.303,0.309,0.303,0.436C551.332,616.281,549.554,617.239,546.646,617.239z
			M546.646,613.677c-2.905,0-4.686-0.957-4.686-1.479c0-0.125,0.105-0.275,0.303-0.434c1.176,0.553,2.813,0.836,4.381,0.836
			c1.566,0,3.206-0.283,4.383-0.836c0.194,0.158,0.303,0.309,0.303,0.434C551.332,612.719,549.554,613.677,546.646,613.677z
			M546.646,610.11c-2.905,0-4.686-0.955-4.686-1.477c0-0.125,0.105-0.277,0.303-0.436c1.176,0.555,2.813,0.836,4.381,0.836
			c1.566,0,3.206-0.281,4.383-0.834c0.194,0.154,0.303,0.309,0.303,0.434C551.332,609.155,549.554,610.11,546.646,610.11z
			M546.646,606.548c-2.905,0-4.686-0.957-4.686-1.479c0-0.521,1.778-1.477,4.686-1.477c2.906,0,4.686,0.955,4.686,1.477
			C551.332,605.591,549.554,606.548,546.646,606.548z M538.646,641.634c-2.906,0-4.686-0.957-4.686-1.479
			c0-0.125,0.105-0.273,0.302-0.432c1.175,0.551,2.813,0.838,4.381,0.838c1.568,0,3.208-0.285,4.384-0.836
			c0.196,0.154,0.303,0.307,0.303,0.43C543.331,640.677,541.551,641.634,538.646,641.634z M538.646,638.069
			c-2.906,0-4.686-0.957-4.686-1.477c0-0.127,0.105-0.277,0.302-0.438c1.175,0.557,2.813,0.838,4.381,0.838
			c1.568,0,3.208-0.281,4.384-0.836c0.196,0.158,0.303,0.311,0.303,0.436C543.331,637.112,541.551,638.069,538.646,638.069z
			M538.646,634.505c-2.906,0-4.686-0.955-4.686-1.479c0-0.125,0.105-0.275,0.302-0.434c1.175,0.553,2.813,0.836,4.381,0.836
			c1.568,0,3.208-0.283,4.384-0.836c0.196,0.158,0.303,0.309,0.303,0.434C543.331,633.55,541.551,634.505,538.646,634.505z
			M538.646,630.94c-2.906,0-4.686-0.955-4.686-1.479c0-0.52,1.777-1.477,4.686-1.477c2.903,0,4.685,0.957,4.685,1.477
			C543.331,629.985,541.551,630.94,538.646,630.94z M546.646,666.028c-2.905,0-4.686-0.957-4.686-1.477
			c0-0.127,0.105-0.277,0.303-0.436c1.176,0.553,2.813,0.836,4.381,0.836c1.566,0,3.206-0.283,4.383-0.836
			c0.194,0.156,0.303,0.309,0.303,0.436C551.332,665.071,549.554,666.028,546.646,666.028z M546.646,662.464
			c-2.905,0-4.686-0.955-4.686-1.479c0-0.123,0.105-0.271,0.303-0.434c1.176,0.553,2.813,0.838,4.381,0.838
			c1.566,0,3.206-0.285,4.383-0.836c0.194,0.158,0.303,0.309,0.303,0.432C551.332,661.509,549.554,662.464,546.646,662.464z
			M546.646,658.899c-2.905,0-4.686-0.957-4.686-1.477c0-0.127,0.105-0.277,0.303-0.438c1.176,0.557,2.813,0.838,4.381,0.838
			c1.566,0,3.206-0.281,4.383-0.836c0.194,0.156,0.303,0.309,0.303,0.436C551.332,657.942,549.554,658.899,546.646,658.899z
			M546.646,655.335c-2.905,0-4.686-0.955-4.686-1.479c0-0.521,1.778-1.477,4.686-1.477c2.906,0,4.686,0.955,4.686,1.477
			C551.332,654.38,549.554,655.335,546.646,655.335z M581.939,652.382c2.904,0,4.687,0.955,4.687,1.477
			c0,0.522-1.78,1.477-4.687,1.477c-2.907,0-4.687-0.953-4.687-1.477C577.254,653.337,579.033,652.382,581.939,652.382z
			M577.56,656.987c1.176,0.555,2.813,0.838,4.382,0.838c1.566,0,3.208-0.283,4.382-0.836c0.198,0.156,0.305,0.309,0.305,0.436
			c0,0.52-1.78,1.477-4.687,1.477c-2.907,0-4.687-0.957-4.687-1.477C577.255,657.296,577.362,657.145,577.56,656.987z
			M577.56,660.552c1.176,0.553,2.813,0.838,4.382,0.838c1.566,0,3.208-0.285,4.382-0.836c0.198,0.158,0.305,0.309,0.305,0.432
			c0,0.523-1.78,1.479-4.687,1.479c-2.907,0-4.687-0.955-4.687-1.479C577.255,660.862,577.362,660.712,577.56,660.552z
			M577.56,664.117c1.176,0.553,2.813,0.836,4.382,0.836c1.566,0,3.208-0.283,4.382-0.836c0.198,0.156,0.305,0.309,0.305,0.436
			c0,0.52-1.78,1.477-4.687,1.477c-2.907,0-4.687-0.957-4.687-1.477C577.255,664.425,577.362,664.274,577.56,664.117z
			M564.293,645.098c-4.519,0-7.285-1.488-7.285-2.297c0-0.195,0.165-0.432,0.473-0.676c1.823,0.857,4.374,1.303,6.813,1.303
			c2.439,0,4.989-0.441,6.814-1.301c0.309,0.242,0.472,0.479,0.472,0.674C571.579,643.61,568.813,645.098,564.293,645.098z
			M564.293,639.555c-4.519,0-7.285-1.488-7.285-2.297c0-0.197,0.165-0.434,0.473-0.678c1.823,0.859,4.374,1.305,6.813,1.305
			c2.439,0,4.989-0.441,6.814-1.305c0.309,0.244,0.472,0.479,0.472,0.678C571.579,638.067,568.813,639.555,564.293,639.555z
			M564.293,634.012c-4.519,0-7.285-1.488-7.285-2.299c0-0.195,0.165-0.432,0.473-0.676c1.823,0.861,4.374,1.303,6.813,1.303
			c2.439,0,4.989-0.439,6.814-1.299c0.309,0.242,0.472,0.479,0.472,0.674C571.579,632.524,568.813,634.012,564.293,634.012z
			M564.293,628.468c-4.519,0-7.285-1.486-7.285-2.297s2.768-2.295,7.285-2.295c4.521,0,7.286,1.484,7.286,2.295
			S568.813,628.468,564.293,628.468z M589.94,641.634c-2.904,0-4.687-0.957-4.687-1.479c0-0.125,0.106-0.273,0.303-0.432
			c1.178,0.551,2.813,0.838,4.384,0.838c1.567,0,3.209-0.285,4.383-0.836c0.194,0.154,0.304,0.307,0.304,0.43
			C594.627,640.677,592.849,641.634,589.94,641.634z M589.94,638.069c-2.904,0-4.687-0.957-4.687-1.477
			c0-0.127,0.106-0.277,0.303-0.438c1.178,0.557,2.813,0.838,4.384,0.838c1.567,0,3.209-0.281,4.383-0.836
			c0.194,0.158,0.304,0.311,0.304,0.436C594.627,637.112,592.849,638.069,589.94,638.069z M589.94,634.505
			c-2.904,0-4.687-0.955-4.687-1.479c0-0.125,0.106-0.275,0.303-0.434c1.178,0.553,2.813,0.836,4.384,0.836
			c1.567,0,3.209-0.283,4.383-0.836c0.194,0.158,0.304,0.309,0.304,0.434C594.627,633.55,592.849,634.505,589.94,634.505z
			M589.94,630.94c-2.904,0-4.687-0.955-4.687-1.479c0-0.52,1.78-1.477,4.687-1.477s4.687,0.957,4.687,1.477
			C594.627,629.985,592.849,630.94,589.94,630.94z"/>
</g>

<g id="Mdb" class="addTooltip showLeft">
	<path fill="#727272" d="M1236.072,664.873c0,5.242-4.254,9.496-9.499,9.496h-58.957c-5.247,0-9.499-4.254-9.499-9.496v-58.959
		c0-5.242,4.252-9.494,9.499-9.494h58.957c5.245,0,9.499,4.252,9.499,9.494V664.873z"/>
	<g >
		<path fill="#FFFFFF" d="M1214.024,640.68c-0.108-0.109-0.262-0.17-0.414-0.17c-0.153,0-0.307,0.061-0.413,0.17l-6.13,6.131
			c-0.167,0.168-0.218,0.418-0.126,0.637c0.089,0.219,0.303,0.359,0.541,0.359h2.723v7.887c0,0.322,0.26,0.586,0.583,0.586h5.646
			c0.321,0,0.586-0.264,0.586-0.586v-7.887h2.722c0.236,0,0.45-0.141,0.54-0.359c0.091-0.219,0.042-0.469-0.126-0.637
			L1214.024,640.68z"/>
		<path fill="#FFFFFF" d="M1226.629,636.69c-2.827-3.141-6.666-5.148-10.826-5.672c-0.143-0.277-0.368-0.68-0.432-0.791
			l-0.166-0.297c0.645-0.984,0.971-2.01,0.971-3.047v-6.053c0-0.896-0.249-1.793-0.729-2.658l-0.053-0.1
			c0.186-0.469,0.274-0.908,0.274-1.342c0-2.453-2.353-4.52-6.803-5.977c-3.789-1.24-8.929-1.951-14.104-1.951
			c-5.175,0-10.313,0.711-14.104,1.951c-4.45,1.459-6.805,3.521-6.805,5.979c0,0.43,0.093,0.869,0.275,1.338l-0.048,0.09
			c-0.484,0.881-0.732,1.777-0.732,2.668v6.053c0,1.043,0.326,2.063,0.975,3.045l-0.172,0.297c-0.53,0.92-0.803,1.861-0.803,2.793
			v6.051c0,1.018,0.311,2.02,0.923,2.977l-0.12,0.209c-0.53,0.922-0.803,1.859-0.803,2.791v6.055c0,2.766,2.246,5.313,6.321,7.174
			c3.979,1.814,9.336,2.814,15.091,2.814c2.113,0,4.247-0.148,6.345-0.439c3.324,3.396,7.757,5.262,12.504,5.262
			c9.655,0,17.514-7.854,17.514-17.514C1231.124,644.069,1229.528,639.91,1226.629,636.69z M1181.523,613.651
			c3.483-1.156,8.188-1.793,13.238-1.793c5.049,0,9.751,0.637,13.241,1.795c3.187,1.057,4.61,2.311,4.61,3.084
			s-1.428,2.029-4.61,3.086c-3.488,1.158-8.188,1.797-13.241,1.797s-9.755-0.639-13.238-1.797c-3.186-1.057-4.609-2.313-4.609-3.086
			C1176.914,615.962,1178.34,614.707,1181.523,613.651z M1176.407,622.656L1176.407,622.656c3.474,2.402,10.515,3.927,18.354,3.927
			c7.838,0,14.879-1.522,18.358-3.927v4.229c0,1.557-1.864,3.275-4.987,4.6c-3.559,1.508-8.307,2.336-13.371,2.336
			c-5.063,0-9.813-0.828-13.365-2.336c-3.123-1.322-4.989-3.043-4.989-4.6V622.656L1176.407,622.656z M1194.764,658.026
			c-5.063,0-9.809-0.828-13.365-2.332c-3.123-1.324-4.989-3.043-4.989-4.596v-4.826c3.76,2.922,10.667,4.713,18.354,4.713
			c0.521,0,1.025-0.025,1.52-0.051c0.355,2.445,1.241,4.811,2.582,6.896C1197.5,657.962,1196.125,658.026,1194.764,658.026z
			 M1196.267,645.946c-0.483,0.029-0.984,0.059-1.503,0.059c-5.063,0-9.811-0.83-13.367-2.334c-3.123-1.324-4.987-3.045-4.987-4.602
			v-4.83c3.753,2.924,10.66,4.717,18.354,4.717c1.346,0,2.74-0.07,4.243-0.219C1197.57,640.905,1196.63,643.376,1196.267,645.946z
			 M1213.61,661.63c-7.296,0-13.235-5.938-13.235-13.234s5.939-13.236,13.235-13.236c7.299,0,13.234,5.938,13.234,13.236
			S1220.909,661.63,1213.61,661.63z"/>
	</g>
</g>
<g id="No_sql" class="addTooltip showRight">
	<path fill="#727272" d="M919.67,664.873c0,5.242-4.252,9.496-9.497,9.496h-58.96c-5.243,0-9.495-4.254-9.495-9.496v-58.959
		c0-5.242,4.252-9.494,9.495-9.494h58.96c5.245,0,9.497,4.252,9.497,9.494V664.873z"/>
	<g>
		<g>
			<g >
				<path fill="#FFFFFF" d="M887.961,636.889c-3.175,0.596-6.81,0.941-10.929,0.941c-10.054,0-17.311-2.029-21.664-4.891v4.891
					c0,1.854,5.335,7.223,21.664,7.223c1.543,0,2.959-0.061,4.31-0.148C882.829,641.694,885.119,638.938,887.961,636.889z"/>
				<path fill="#FFFFFF" d="M877.032,633.018c16.329,0,21.666-5.371,21.666-7.221v-4.895c-4.357,2.863-11.613,4.895-21.666,4.895
					c-10.054,0-17.311-2.029-21.664-4.895v4.895C855.368,627.647,860.703,633.018,877.032,633.018z"/>
				<path fill="#FFFFFF" d="M877.032,620.983c12.507,0,18.547-3.146,20.702-5.451c-2.881-4.334-11.825-6.586-20.702-6.586
					s-17.822,2.252-20.702,6.586C858.486,617.837,864.527,620.983,877.032,620.983z"/>
				<path fill="#FFFFFF" d="M877.032,649.867c-10.054,0-17.311-2.027-21.664-4.891v2.484c0,6.318,10.896,9.629,21.664,9.629
					c0.913,0,1.825-0.035,2.73-0.08c-0.198-1.148-0.323-2.324-0.323-3.531c0-1.254,0.132-2.477,0.347-3.67
					C878.888,649.844,877.977,649.867,877.032,649.867z"/>
				<path fill="#FFFFFF" d="M907.121,654.684c-1.953,0-3.682,0.951-4.779,2.402l-6.167-2.467c0.068-0.375,0.114-0.752,0.114-1.143
					c0-0.389-0.046-0.77-0.114-1.145l6.167-2.463c1.1,1.449,2.826,2.402,4.779,2.402c3.318,0,6.02-2.699,6.02-6.018
					c0-3.32-2.698-6.021-6.02-6.021c-3.318,0-6.016,2.699-6.016,6.021c0,0.068,0.017,0.141,0.019,0.213l-6.69,2.678
					c-1.082-1.041-2.544-1.688-4.162-1.688c-3.316,0-6.017,2.697-6.017,6.02s2.698,6.018,6.017,6.018
					c1.617,0,3.08-0.645,4.162-1.688l6.69,2.678c-0.002,0.072-0.019,0.141-0.019,0.213c0,3.32,2.695,6.021,6.016,6.021
					c3.318,0,6.02-2.699,6.02-6.021C913.141,657.382,910.439,654.684,907.121,654.684z"/>
			</g>
		</g>
	</g>
</g>
<g id="Manager" class="addTooltip showDown">
	<path fill="#727272" d="M210.6,134.3c0,5.243-4.252,9.496-9.497,9.496h-58.959c-5.245,0-9.497-4.253-9.497-9.496V75.34
		c0-5.244,4.252-9.496,9.497-9.496h58.959c5.245,0,9.497,4.252,9.497,9.496V134.3z"/>
	<g>
		<path fill="#FFFFFF" d="M197.802,118.941l-1.295-0.248c-0.607-0.116-1.085-0.513-1.311-1.091c-0.227-0.575-0.146-1.19,0.22-1.689
			l0.813-1.108c0.262-0.357,0.224-0.853-0.089-1.165l-1.758-1.757c-0.304-0.303-0.782-0.349-1.137-0.107l-1.092,0.738
			c-0.297,0.2-0.637,0.309-0.986,0.309c-0.757,0-1.603-0.518-1.754-1.504l-0.209-1.356c-0.066-0.438-0.443-0.762-0.885-0.762h-2.484
			c-0.43,0-0.8,0.307-0.881,0.729l-0.321,1.671c-0.181,0.941-1.014,1.438-1.743,1.438c-0.348,0-0.689-0.104-0.985-0.308l-1.41-0.955
			c-0.355-0.237-0.833-0.193-1.137,0.108l-1.756,1.758c-0.314,0.313-0.352,0.806-0.09,1.164l0.813,1.109
			c0.365,0.497,0.447,1.112,0.219,1.688c-0.226,0.577-0.704,0.976-1.312,1.09l-1.294,0.25c-0.422,0.08-0.728,0.449-0.728,0.879
			v2.485c0,0.44,0.323,0.817,0.761,0.887l1.359,0.209c0.612,0.095,1.105,0.476,1.352,1.04c0.248,0.567,0.19,1.188-0.157,1.699
			l-0.739,1.092c-0.241,0.355-0.195,0.833,0.109,1.139l1.756,1.757c0.312,0.313,0.807,0.352,1.165,0.09l1.109-0.813
			c0.306-0.227,0.665-0.346,1.037-0.346c0.729,0,1.562,0.494,1.744,1.438l0.248,1.296c0.082,0.42,0.451,0.728,0.882,0.728h2.484
			c0.442,0,0.819-0.323,0.886-0.761l0.147-0.956c0.151-0.986,0.999-1.503,1.756-1.503c0.371,0,0.729,0.119,1.037,0.347l0.779,0.572
			c0.359,0.262,0.854,0.223,1.166-0.09l1.756-1.758c0.304-0.306,0.35-0.779,0.108-1.138l-0.739-1.092
			c-0.347-0.514-0.404-1.132-0.157-1.701c0.246-0.564,0.74-0.944,1.353-1.038l1.359-0.21c0.437-0.066,0.759-0.443,0.759-0.887
			v-2.484C198.53,119.393,198.225,119.023,197.802,118.941z M196.737,121.539l-0.598,0.091c-1.214,0.188-2.232,0.972-2.723,2.099
			c-0.492,1.126-0.373,2.404,0.315,3.421l0.324,0.479l-0.689,0.688l-0.159-0.117c-0.618-0.451-1.343-0.69-2.099-0.69
			c-1.774,0-3.26,1.271-3.529,3.023l-0.029,0.192h-0.974l-0.108-0.567c-0.322-1.675-1.797-2.893-3.506-2.893
			c-0.756,0-1.481,0.24-2.099,0.69l-0.488,0.357l-0.689-0.688l0.324-0.479c0.688-1.019,0.806-2.297,0.315-3.421
			c-0.491-1.126-1.509-1.91-2.723-2.099l-0.598-0.089v-0.976l0.567-0.107c1.208-0.23,2.195-1.056,2.644-2.196
			c0.448-1.146,0.282-2.417-0.443-3.407l-0.358-0.488l0.689-0.688l0.797,0.54c0.594,0.399,1.283,0.613,1.991,0.613
			c1.708,0,3.183-1.216,3.505-2.893l0.18-0.943h0.974l0.093,0.598c0.27,1.752,1.753,3.022,3.528,3.022
			c0.707,0,1.395-0.211,1.99-0.614l0.478-0.323l0.689,0.688l-0.358,0.488c-0.726,0.989-0.891,2.263-0.443,3.407
			c0.449,1.143,1.437,1.966,2.643,2.196l0.566,0.107L196.737,121.539L196.737,121.539z"/>
		<path fill="#FFFFFF" d="M186.871,116.373c-2.472,0-4.484,2.015-4.484,4.485c0,2.473,2.012,4.482,4.484,4.482
			c2.473,0,4.484-2.012,4.484-4.482S189.344,116.373,186.871,116.373z M186.871,123.548c-1.483,0-2.69-1.206-2.69-2.688
			c0-1.483,1.207-2.692,2.69-2.692c1.484,0,2.691,1.209,2.691,2.692C189.562,122.342,188.354,123.548,186.871,123.548z"/>
		<path fill="#FFFFFF" d="M145.464,97.538c-0.467,0.664-0.749,1.466-0.749,2.339v10.567c0,0.875,0.281,1.679,0.749,2.342h29.182
			l4.38-4.378c0.305-0.306,0.78-0.35,1.137-0.108l2.097,1.42l0.048-0.282l0.423-2.201c0.081-0.422,0.451-0.729,0.881-0.729h7.015
			c0.442,0,0.819,0.323,0.886,0.761l0.339,2.201l1.724-1.17c0.355-0.239,0.833-0.195,1.137,0.108l3.521,3.519
			c0.184-0.459,0.295-0.953,0.295-1.479v-10.57c0-0.874-0.281-1.676-0.748-2.339H145.464z M154.133,109.198
			c-2.225,0-4.037-1.812-4.037-4.035c0-2.225,1.812-4.036,4.037-4.036c2.225,0,4.036,1.813,4.036,4.036
			S156.358,109.198,154.133,109.198z M175.21,104.714c-0.495,0-0.897-0.401-0.897-0.897c0-0.495,0.402-0.896,0.897-0.896
			c0.496,0,0.897,0.401,0.897,0.896C176.108,104.313,175.706,104.714,175.21,104.714z M178.799,104.714
			c-0.495,0-0.897-0.401-0.897-0.897c0-0.495,0.402-0.896,0.897-0.896s0.897,0.401,0.897,0.896
			C179.696,104.313,179.293,104.714,178.799,104.714z M182.386,104.714c-0.495,0-0.896-0.401-0.896-0.897
			c0-0.495,0.402-0.896,0.896-0.896c0.495,0,0.897,0.401,0.897,0.896C183.283,104.313,182.881,104.714,182.386,104.714z
			 M185.974,104.714c-0.495,0-0.897-0.401-0.897-0.897c0-0.495,0.402-0.896,0.897-0.896c0.496,0,0.897,0.401,0.897,0.896
			C186.871,104.313,186.469,104.714,185.974,104.714z M189.562,104.714c-0.496,0-0.897-0.401-0.897-0.897
			c0-0.495,0.402-0.896,0.897-0.896s0.896,0.401,0.896,0.896C190.458,104.313,190.057,104.714,189.562,104.714z"/>
		<path fill="#FFFFFF" d="M194.398,78.703h-45.55c-2.279,0-4.132,1.854-4.132,4.133v10.567c0,0.874,0.281,1.677,0.749,2.341h52.316
			c0.468-0.664,0.75-1.467,0.75-2.339V82.836C198.53,80.557,196.677,78.703,194.398,78.703z M154.133,92.156
			c-2.225,0-4.037-1.811-4.037-4.035c0-2.227,1.812-4.037,4.037-4.037c2.225,0,4.036,1.812,4.036,4.037
			S156.358,92.156,154.133,92.156z M175.21,87.672c-0.495,0-0.897-0.399-0.897-0.896c0-0.495,0.402-0.896,0.897-0.896
			c0.496,0,0.897,0.4,0.897,0.896C176.108,87.271,175.706,87.672,175.21,87.672z M177.005,90.362c-0.495,0-0.897-0.399-0.897-0.896
			c0-0.494,0.402-0.896,0.897-0.896s0.896,0.401,0.896,0.896C177.901,89.962,177.5,90.362,177.005,90.362z M178.799,87.672
			c-0.495,0-0.897-0.399-0.897-0.896c0-0.495,0.402-0.896,0.897-0.896s0.897,0.4,0.897,0.896S179.293,87.672,178.799,87.672z
			 M180.593,90.362c-0.495,0-0.897-0.399-0.897-0.896c0-0.494,0.402-0.896,0.897-0.896c0.495,0,0.896,0.401,0.896,0.896
			C181.489,89.962,181.088,90.362,180.593,90.362z M182.386,87.672c-0.495,0-0.896-0.399-0.896-0.896
			c0-0.495,0.402-0.896,0.896-0.896c0.495,0,0.897,0.4,0.897,0.896S182.881,87.672,182.386,87.672z M184.18,90.362
			c-0.495,0-0.897-0.399-0.897-0.896c0-0.494,0.402-0.896,0.897-0.896c0.496,0,0.896,0.401,0.896,0.896
			C185.077,89.962,184.676,90.362,184.18,90.362z M185.974,87.672c-0.495,0-0.897-0.399-0.897-0.896
			c0-0.495,0.402-0.896,0.897-0.896c0.496,0,0.897,0.4,0.897,0.896S186.469,87.672,185.974,87.672z M187.768,90.362
			c-0.496,0-0.897-0.399-0.897-0.896c0-0.494,0.402-0.896,0.897-0.896s0.896,0.401,0.896,0.896
			C188.665,89.962,188.264,90.362,187.768,90.362z M189.562,87.672c-0.496,0-0.897-0.399-0.897-0.896
			c0-0.495,0.402-0.896,0.897-0.896s0.896,0.4,0.896,0.896S190.057,87.672,189.562,87.672z M191.355,90.362
			c-0.495,0-0.896-0.399-0.896-0.896c0-0.494,0.402-0.896,0.896-0.896c0.495,0,0.897,0.401,0.897,0.896
			C192.252,89.962,191.85,90.362,191.355,90.362z"/>
		<path fill="#FFFFFF" d="M174.312,127.564l1.169-1.726l-2.2-0.338c-0.438-0.066-0.761-0.442-0.761-0.889V117.6
			c0-0.431,0.306-0.801,0.729-0.881l2.045-0.395l-1.284-1.745h-28.546c-0.467,0.662-0.749,1.467-0.749,2.339v10.567
			c0,2.28,1.854,4.135,4.132,4.135h28.491l-2.919-2.921C174.116,128.396,174.071,127.919,174.312,127.564z M154.133,126.24
			c-2.225,0-4.037-1.813-4.037-4.036c0-2.227,1.812-4.038,4.037-4.038c2.225,0,4.036,1.813,4.036,4.038
			C158.169,124.429,156.358,126.24,154.133,126.24z"/>
	</g>
</g>
<g id="Rdb" class="addTooltip showRight">
	<path fill="#727272" d="M286.871,664.873c0,5.242-4.252,9.496-9.497,9.496h-58.959c-5.245,0-9.497-4.254-9.497-9.496v-58.959
		c0-5.242,4.252-9.494,9.497-9.494h58.959c5.245,0,9.497,4.252,9.497,9.494V664.873z"/>
	<g>
		<g >
			<g>
				<g>
					<g>
						<path fill="#FFFFFF" d="M241.629,623.11c0.565,0,1.122-0.012,1.672-0.037c0.291-3.896,6.426-6.193,13.315-6.76v-3.152
							c0-3.02-6.711-5.467-14.987-5.467c-8.278,0-14.988,2.447-14.988,5.467v4.484C226.642,620.662,233.352,623.11,241.629,623.11z"
							/>
					</g>
				</g>
				<path fill="#FFFFFF" d="M226.646,620.662l-0.005,4.99c2.083-0.477,4.365-0.758,6.653-0.854
					C229.58,623.885,226.994,622.384,226.646,620.662z"/>
				<g>
					<g>
						<path fill="#FFFFFF" d="M260.376,618.281c-8.276,0-14.986,2.445-14.986,5.463v2.375c1.833,0.557,3.439,1.283,4.656,2.195
							l0.089,0.066c1.456,1.115,2.33,2.506,2.33,4.18v0.311c2.297,0.521,5.006,0.82,7.912,0.82c8.278,0,14.988-2.443,14.988-5.463
							v-4.484C275.364,620.727,268.654,618.281,260.376,618.281z"/>
					</g>
				</g>
				<path fill="#FFFFFF" d="M275.366,631.246c-0.57,2.83-7.087,5.063-14.991,5.063c-2.905,0-5.617-0.303-7.912-0.824v7.813
					c2.296,0.521,5.007,0.822,7.912,0.822c8.278,0,14.987-2.445,14.987-5.465C275.364,638.653,275.394,631.382,275.366,631.246z"/>
				<path fill="#FFFFFF" d="M275.361,641.8c-0.571,2.826-7.083,5.057-14.985,5.057c-2.905,0-5.617-0.303-7.912-0.824v7.814
					c2.297,0.521,5.006,0.822,7.912,0.822c8.278,0,14.988-2.445,14.988-5.469C275.364,649.201,275.387,641.93,275.361,641.8z"/>
				<g>
					<g>
						<path fill="#FFFFFF" d="M235.409,626.705c-8.277,0-14.987,2.445-14.987,5.465v4.484c0,3.021,6.71,5.463,14.987,5.463
							c8.278,0,14.987-2.439,14.987-5.463v-4.484C250.396,629.151,243.687,626.705,235.409,626.705z"/>
					</g>
				</g>
				<g>
					<g>
						<path fill="#FFFFFF" d="M235.409,644.731c-7.902,0-14.414-2.229-14.983-5.057c-0.026,0.131-0.004,7.4-0.004,7.4
							c0,3.021,6.71,5.469,14.987,5.469c8.278,0,14.987-2.445,14.987-5.469c0,0,0.024-7.271-0.004-7.402
							C249.822,642.501,243.313,644.731,235.409,644.731z"/>
					</g>
				</g>
				<g>
					<g>
						<path fill="#FFFFFF" d="M235.409,655.281c-7.902,0-14.419-2.23-14.989-5.063l0.002,7.408c0,3.02,6.71,5.465,14.987,5.465
							c8.278,0,14.987-2.445,14.987-5.465c0,0,0.018-7.273-0.009-7.408C249.816,653.05,243.313,655.281,235.409,655.281z"/>
					</g>
				</g>
			</g>
		</g>
	</g>
</g>
<g>
	<g>
		
			<line fill="none" stroke="#429884" stroke-width="6" stroke-miterlimit="10" x1="744.598" y1="140.701" x2="747.735" y2="140.701"/>
		
			<line id="KafkaToSpark" fill="none" stroke="#429884" stroke-width="6" stroke-miterlimit="10" stroke-dasharray="6.2169,6.2169" x1="753.952" y1="140.701" x2="962.219" y2="140.701"/>
		
			<line fill="none" stroke="#429884" stroke-width="6" stroke-miterlimit="10" x1="965.327" y1="140.701" x2="968.465" y2="140.701"/>
		<g>
			<polygon fill="#429884" points="965.547,150.674 982.816,140.701 965.547,130.729 			"/>
		</g>
	</g>
</g>
<g>
	<g>
		
			<line fill="none" stroke="#429884" stroke-width="6" stroke-miterlimit="10" x1="1059.762" y1="140.701" x2="1062.899" y2="140.701"/>
		
			<line id="SparkToR_Kafka" fill="none" stroke="#429884" stroke-width="6" stroke-miterlimit="10" stroke-dasharray="6.2169,6.2169" x1="1069.116" y1="140.701" x2="1277.383" y2="140.701"/>
		
			<line fill="none" stroke="#429884" stroke-width="6" stroke-miterlimit="10" x1="1280.491" y1="140.701" x2="1283.629" y2="140.701"/>
		<g>
			<polygon fill="#429884" points="1280.711,150.674 1297.98,140.701 1280.711,130.729 			"/>
		</g>
	</g>
</g>
<g>
	
	<g id="Was" class="addTooltip showRight">
		<path fill="#727272" d="M143.121,453.016c0,5.244-4.252,9.496-9.497,9.496H74.665c-5.246,0-9.497-4.252-9.497-9.496v-58.959
		c0-5.244,4.251-9.497,9.497-9.497h58.959c5.244,0,9.497,4.253,9.497,9.497V453.016z"/>
		<path fill="#FFFFFF" d="M111.489,401.037h-14.69c-0.517,0-0.936,0.42-0.936,0.938V445.1c0,0.52,0.419,0.938,0.936,0.938h14.689
			c0.516,0,0.935-0.418,0.935-0.938v-43.127C112.424,401.457,112.005,401.037,111.489,401.037z M104.144,437.821
			c-1.806,0-3.269-1.463-3.269-3.268c0-1.807,1.463-3.27,3.269-3.27c1.805,0,3.269,1.463,3.269,3.27
			C107.413,436.358,105.949,437.821,104.144,437.821z M110.155,421.137c0,0.516-0.418,0.936-0.938,0.936h-10.15
			c-0.517,0-0.936-0.42-0.936-0.936V420.2c0-0.518,0.419-0.936,0.936-0.936h10.151c0.518,0,0.938,0.418,0.938,0.936L110.155,421.137
			L110.155,421.137z M110.155,416.462c0,0.514-0.418,0.934-0.938,0.934h-10.15c-0.517,0-0.936-0.42-0.936-0.934v-0.938
			c0-0.518,0.419-0.938,0.936-0.938h10.151c0.518,0,0.938,0.42,0.938,0.938L110.155,416.462L110.155,416.462z M110.155,411.78
			c0,0.52-0.418,0.938-0.938,0.938h-10.15c-0.517,0-0.936-0.42-0.936-0.938v-0.934c0-0.518,0.419-0.938,0.936-0.938h10.151
			c0.518,0,0.938,0.42,0.938,0.938L110.155,411.78L110.155,411.78z M110.155,407.102c0,0.518-0.418,0.936-0.938,0.936h-10.15
			c-0.517,0-0.936-0.418-0.936-0.936v-0.934c0-0.521,0.419-0.938,0.936-0.938h10.151c0.518,0,0.938,0.416,0.938,0.938
			L110.155,407.102L110.155,407.102z"/>
		<path fill="#FFFFFF" d="M133.03,406.018c0-0.439-0.373-0.832-0.833-0.875c-4.355-0.396-8.71-0.793-13.065-1.188
			c-0.048-0.004-0.184,0-0.329,0.041l-5.092,1.287v40.002l5.269,0.746c0.064,0.018,0.146,0,0.152,0
			c4.355-0.396,8.71-0.836,13.065-1.23c0.46-0.043,0.833-0.436,0.833-0.877C133.03,433.753,133.03,416.192,133.03,406.018z
			 M120.318,408.759c0-0.475,0.373-0.832,0.833-0.799c3.01,0.215,6.02,0.426,9.029,0.639c0.459,0.033,0.833,0.42,0.833,0.867v0.807
			c0,0.447-0.373,0.787-0.833,0.764c-3.01-0.174-6.02-0.346-9.029-0.518c-0.459-0.025-0.833-0.432-0.833-0.904V408.759z
			 M131.012,422.395c0,0.443-0.373,0.813-0.833,0.816c-3.01,0.029-6.02,0.064-9.029,0.096c-0.459,0.006-0.833-0.373-0.833-0.846
			v-0.855c0-0.475,0.373-0.857,0.833-0.855c3.009,0.01,6.02,0.02,9.029,0.025c0.459,0.002,0.833,0.363,0.833,0.809V422.395z
			 M130.18,419.151c-3.01-0.035-6.02-0.07-9.029-0.104c-0.459-0.008-0.833-0.395-0.833-0.867v-0.855
			c0-0.473,0.373-0.848,0.833-0.836c3.01,0.076,6.02,0.152,9.029,0.229c0.459,0.012,0.832,0.383,0.832,0.832c0,0.32,0,0.48,0,0.807
			C131.012,418.8,130.639,419.158,130.18,419.151z M131.012,414.313c0,0.447-0.373,0.795-0.833,0.779
			c-3.01-0.104-6.02-0.209-9.029-0.313c-0.459-0.016-0.833-0.412-0.833-0.885v-0.857c0-0.473,0.373-0.836,0.833-0.813
			c3.01,0.143,6.02,0.289,9.029,0.434c0.459,0.021,0.833,0.4,0.833,0.848V414.313z"/>
		<path fill="#FFFFFF" d="M89.156,403.955c-4.355,0.396-8.71,0.791-13.065,1.188c-0.459,0.043-0.833,0.436-0.833,0.875
			c0,10.174,0,27.734,0,37.904c0,0.441,0.373,0.834,0.833,0.877c4.355,0.396,8.71,0.836,13.065,1.23c0.005,0,0.088,0.018,0.152,0
			l5.27-0.746v-40.002l-5.093-1.287C89.34,403.955,89.203,403.951,89.156,403.955z M87.97,422.462c0,0.473-0.373,0.852-0.833,0.846
			c-3.01-0.029-6.02-0.063-9.029-0.096c-0.46-0.006-0.833-0.373-0.833-0.816v-0.811c0-0.445,0.373-0.809,0.833-0.811
			c3.01-0.008,6.02-0.018,9.029-0.023c0.459-0.004,0.833,0.381,0.833,0.854V422.462z M87.97,418.178
			c0,0.475-0.373,0.859-0.833,0.867c-3.01,0.033-6.02,0.068-9.029,0.104c-0.46,0.008-0.833-0.352-0.833-0.797
			c0-0.324,0-0.484,0-0.807c0-0.449,0.373-0.82,0.833-0.832c3.01-0.076,6.02-0.152,9.029-0.229c0.459-0.012,0.833,0.363,0.833,0.836
			V418.178z M87.97,413.897c0,0.473-0.373,0.869-0.833,0.885c-3.01,0.104-6.02,0.207-9.029,0.313
			c-0.46,0.016-0.833-0.332-0.833-0.779v-0.809c0-0.445,0.373-0.824,0.833-0.848c3.01-0.145,6.02-0.291,9.029-0.434
			c0.459-0.021,0.833,0.342,0.833,0.813V413.897z M87.97,409.614c0,0.475-0.373,0.879-0.833,0.904
			c-3.01,0.172-6.02,0.344-9.029,0.518c-0.46,0.023-0.833-0.314-0.833-0.764v-0.807c0-0.447,0.373-0.834,0.833-0.867
			c3.01-0.213,6.02-0.426,9.029-0.639c0.459-0.033,0.833,0.324,0.833,0.799V409.614z"/>
	</g>
</g>
<g id="DB_Server" class="addTooltip showRight">
	<path fill="#727272" d="M349.308,453.016c0,5.244-4.252,9.496-9.497,9.496h-58.959c-5.245,0-9.497-4.252-9.497-9.496v-58.959
		c0-5.244,4.252-9.497,9.497-9.497h58.959c5.245,0,9.497,4.253,9.497,9.497V453.016z"/>
	<g>
		<g id="Layer_1_15_">
			<g>
				<path fill="#FFFFFF" d="M317.744,402.615c0-3.561-7.914-6.445-17.675-6.445c-9.761,0-17.674,2.887-17.674,6.445v5.287
					c0,3.561,7.913,6.445,17.674,6.445c0.667,0,1.324-0.015,1.972-0.043c0.343-4.597,7.579-7.306,15.703-7.972V402.615z"/>
				<path fill="#FFFFFF" d="M282.392,411.462l0.002,0.477v8.26c0,3.561,7.913,6.443,17.674,6.443c0.66,0,1.312-0.012,1.953-0.039
					v-9.215c-0.642,0.023-1.293,0.043-1.953,0.043C290.748,417.43,283.063,414.796,282.392,411.462z"/>
				<path fill="#FFFFFF" d="M282.398,423.903l-0.004,0.48v8.256c0,3.559,7.913,6.443,17.674,6.443c0.66,0,1.312-0.016,1.953-0.039
					v-6.816v-2.396c-0.642,0.029-1.293,0.041-1.953,0.041C290.748,429.871,283.069,427.239,282.398,423.903z"/>
				<path fill="#FFFFFF" d="M322.179,408.656c-9.761,0-17.676,2.883-17.676,6.443v5.287c0,3.561,7.915,6.443,17.676,6.443
					c9.761,0,17.674-2.885,17.674-6.443V415.1C339.854,411.539,331.94,408.656,322.179,408.656z"/>
				<path fill="#FFFFFF" d="M322.179,429.912c-9.32,0-16.998-2.629-17.669-5.969l-0.007,0.479v8.258
					c0,3.559,7.915,6.441,17.676,6.441c9.761,0,17.674-2.883,17.674-6.441v-8.258c0-0.16-0.033-0.318-0.065-0.479
					C339.116,427.283,331.499,429.912,322.179,429.912z"/>
				<path fill="#FFFFFF" d="M322.179,442.356c-9.32,0-16.992-2.633-17.665-5.967l-0.012,0.475v8.258
					c0,3.563,7.916,6.445,17.675,6.445c9.762,0,17.676-2.883,17.676-6.445v-8.256c0-0.16-0.034-0.318-0.066-0.477
					C339.116,439.723,331.499,442.356,322.179,442.356z"/>
			</g>
		</g>
	</g>
</g>
<g>
	
	<g id="Spark" class="addTooltip showDown">
		<path fill="#727272" d="M1060.214,165.397c0,5.245-4.254,9.497-9.497,9.497h-58.96c-5.244,0-9.497-4.252-9.497-9.497v-58.958
		c0-5.245,4.253-9.497,9.497-9.497h58.96c5.243,0,9.497,4.252,9.497,9.497V165.397z"/>
		<path fill="#FFFFFF" d="M1048.936,126.46v-8.966H993.54v8.966h2.729v3.921h-2.729v8.969h55.396v-8.969h-3.148v-3.921H1048.936z
			 M1003.482,135.675h-3.877v-3.79h3.877V135.675L1003.482,135.675z M1003.482,130.265h-3.877v-3.791h3.877V130.265
			L1003.482,130.265z M1003.482,124.957h-3.877v-3.791h3.877V124.957L1003.482,124.957z M1009.213,135.675h-3.877v-3.79h3.877
			V135.675L1009.213,135.675z M1009.213,130.265h-3.877v-3.791h3.877V130.265L1009.213,130.265z M1009.213,124.957h-3.877v-3.791
			h3.877V124.957L1009.213,124.957z M1014.857,135.675h-3.877v-3.79h3.877V135.675z M1014.857,130.265h-3.877v-3.791h3.877V130.265z
			 M1014.857,124.957h-3.877v-3.791h3.877V124.957z M1020.444,135.675h-3.876v-3.79h3.876V135.675z M1020.444,130.265h-3.876v-3.791
			h3.876V130.265z M1020.444,124.957h-3.876v-3.791h3.876V124.957z M1026.173,135.675h-3.875v-3.79h3.875V135.675z
			 M1026.173,130.265h-3.875v-3.791h3.875V130.265z M1026.173,124.957h-3.875v-3.791h3.875V124.957z M1031.817,135.675h-3.873v-3.79
			h3.873V135.675z M1031.817,130.265h-3.873v-3.791h3.873V130.265z M1031.817,124.957h-3.873v-3.791h3.873V124.957z
			 M1040.489,135.566h-5.004v-2.312h5.004V135.566z M1037.968,129.077c-2.205,0-3.994-1.788-3.994-3.994
			c0-2.202,1.787-3.991,3.994-3.991c2.206,0,3.993,1.787,3.993,3.991C1041.961,127.289,1040.174,129.077,1037.968,129.077z
			 M1040.489,125.061c0,1.381-1.119,2.5-2.502,2.5c-1.381,0-2.502-1.12-2.502-2.5c0-1.383,1.121-2.502,2.502-2.502
			C1039.37,122.559,1040.489,123.678,1040.489,125.061z M1029.743,150.698h6.475v1.535h-6.475v2.108h-21.084v-2.108h-5.818v-1.535
			h5.818v-1.727h7.856V143.8h5.372v5.172h7.854L1029.743,150.698L1029.743,150.698z"/>
	</g>
</g>
<g>
	
	<g>
		<g>
			<g id="R_kafka" class="addTooltip showDown">
				<path fill="#727272" d="M1376.383,165.397c0,5.245-4.251,9.497-9.496,9.497h-58.959c-5.244,0-9.494-4.252-9.494-9.497v-58.958
					c0-5.244,4.25-9.497,9.494-9.497h58.959c5.245,0,9.496,4.253,9.496,9.497V165.397z"/>
				<path fill="#FFFFFF" d="M1347.61,135.034c-0.363-0.422-0.606-0.952-0.606-1.556c0-1.331,1.076-2.407,2.407-2.407
					s2.409,1.076,2.409,2.407c0,0.121-0.053,0.23-0.072,0.35c1.196-0.217,2.423-0.35,3.683-0.35c1.235,0,2.437,0.128,3.608,0.34
					v-7.563h-48.142V140.7h28.942C1341.931,138.243,1344.585,136.286,1347.61,135.034z M1330.154,135.887h-12.035v-4.814h12.035
					V135.887z M1342.189,131.072c1.332,0,2.405,1.076,2.405,2.407c0,1.33-1.073,2.405-2.405,2.405s-2.407-1.075-2.407-2.405
					C1339.782,132.148,1340.858,131.072,1342.189,131.072z"/>
				<path fill="#FFFFFF" d="M1359.041,114.223c0-2.659-2.158-4.814-4.814-4.814h-38.515c-2.658,0-4.813,2.155-4.813,4.814v9.627
					h48.144L1359.041,114.223L1359.041,114.223z M1330.154,119.035h-12.035v-4.813h12.035V119.035z M1342.189,119.035
					c-1.332,0-2.407-1.074-2.407-2.407c0-1.331,1.076-2.404,2.407-2.404c1.328,0,2.405,1.073,2.405,2.404
					C1344.597,117.961,1343.52,119.035,1342.189,119.035z M1349.411,119.035c-1.331,0-2.407-1.074-2.407-2.407
					c0-1.331,1.076-2.404,2.407-2.404c1.329,0,2.409,1.073,2.409,2.404C1351.82,117.961,1350.74,119.035,1349.411,119.035z"/>
				<path fill="#FFFFFF" d="M1310.896,143.107v9.629c0,2.654,2.155,4.813,4.813,4.813h19.597c-0.212-1.174-0.34-2.373-0.34-3.609
					c0-3.979,1.159-7.687,3.127-10.833H1310.896z M1330.154,152.736h-12.035v-4.813h12.035V152.736z"/>
				<path fill="#FFFFFF" d="M1362.652,155.144c-1.955,0-3.685,0.954-4.781,2.401l-6.167-2.464c0.064-0.374,0.116-0.751,0.116-1.142
					c0-0.393-0.052-0.771-0.116-1.143l6.167-2.465c1.099,1.447,2.826,2.4,4.781,2.4c3.315,0,6.018-2.696,6.018-6.019
					c0-3.321-2.7-6.019-6.018-6.019c-3.32,0-6.021,2.697-6.021,6.019c0,0.072,0.021,0.144,0.022,0.215l-6.694,2.678
					c-1.081-1.04-2.542-1.688-4.16-1.688c-3.318,0-6.019,2.695-6.019,6.019c0,3.318,2.696,6.019,6.019,6.019
					c1.618,0,3.079-0.644,4.16-1.688l6.694,2.678c-0.005,0.07-0.022,0.144-0.022,0.215c0,3.318,2.697,6.02,6.02,6.02
					c3.317,0,6.02-2.699,6.02-6.02S1365.97,155.144,1362.652,155.144z"/>
			</g>
		</g>
	</g>
</g>

<g >
	<g>
		<g id="Adapter" class="addTooltip showDown">
			<path fill="#727272" d="M427.871,165.397c0,5.245-4.251,9.497-9.496,9.497h-58.959c-5.244,0-9.497-4.252-9.497-9.497v-58.958
			c0-5.245,4.253-9.497,9.497-9.497h58.959c5.245,0,9.496,4.252,9.496,9.497V165.397z"/>
			<circle fill="#FFFFFF" cx="411.054" cy="160.848" r="2.77"/>
			<circle fill="#FFFFFF" cx="366.735" cy="160.848" r="2.77"/>
			<path fill="#FFFFFF" d="M361.196,141.458c0,3.057,2.484,5.539,5.54,5.539h19.39v11.081h-13.85v5.54h33.239v-5.54h-13.85v-11.081
				h19.39c3.058,0,5.54-2.482,5.54-5.539v-11.079h-55.396L361.196,141.458L361.196,141.458z M405.514,135.918
				c1.532,0,2.77,1.237,2.77,2.771c0,1.531-1.238,2.771-2.77,2.771c-1.531,0-2.77-1.237-2.77-2.771S403.983,135.918,405.514,135.918
				z M397.205,135.918c1.532,0,2.77,1.237,2.77,2.771c0,1.531-1.238,2.771-2.77,2.771c-1.532,0-2.77-1.236-2.77-2.771
				S395.673,135.918,397.205,135.918z M369.505,135.918h13.85v5.54h-13.85V135.918z"/>
			<path fill="#FFFFFF" d="M411.054,108.219h-44.319c-3.055,0-5.54,2.484-5.54,5.54v11.079h55.398V113.76
				C416.594,110.704,414.112,108.219,411.054,108.219z M383.355,119.299h-13.85v-5.539h13.85V119.299z M397.205,119.299
				c-1.532,0-2.77-1.236-2.77-2.771c0-1.53,1.238-2.771,2.77-2.771c1.532,0,2.77,1.238,2.77,2.771
				C399.975,118.062,398.736,119.299,397.205,119.299z M405.514,119.299c-1.531,0-2.77-1.236-2.77-2.771
				c0-1.53,1.239-2.771,2.77-2.771c1.532,0,2.77,1.238,2.77,2.771C408.284,118.062,407.046,119.299,405.514,119.299z"/>
		</g>
	</g>
</g>
<g>
	
	<g id="Kafka" class="addTooltip showDown">
		<path fill="#727272" d="M744.042,165.397c0,5.245-4.252,9.497-9.497,9.497h-58.958c-5.245,0-9.497-4.252-9.497-9.497v-58.958
		c0-5.245,4.252-9.497,9.497-9.497h58.958c5.245,0,9.497,4.252,9.497,9.497V165.397z"/>
		<path fill="#FFFFFF" d="M726.362,128.327h-42.591c-4.188,0-7.593,3.405-7.593,7.591c0,4.188,3.406,7.595,7.593,7.595h28.395
			c1.271-2.433,3.816-4.097,6.745-4.097c0.64,0,1.274,0.08,1.891,0.238l1.104-0.514c0.063-0.294,0.146-0.583,0.241-0.865
			c-0.961-0.353-1.649-1.274-1.649-2.357c0-1.387,1.128-2.515,2.516-2.515c0.847,0,1.595,0.424,2.048,1.063
			c1.229-0.841,2.711-1.328,4.285-1.328c1.682,0,3.232,0.548,4.493,1.475C733.216,131.048,730.1,128.327,726.362,128.327z
			 M692.249,137.891h-6.901c-1.086,0-1.971-0.885-1.971-1.974c0-1.086,0.885-1.972,1.971-1.972h6.901
			c1.088,0,1.973,0.886,1.973,1.972C694.221,137.007,693.336,137.891,692.249,137.891z"/>
		<path fill="#FFFFFF" d="M722.598,156.143c-0.903-0.149-1.646-0.781-1.951-1.624l-0.119-0.061
			c-0.531,0.116-1.072,0.176-1.615,0.176c-4.196,0-7.608-3.412-7.608-7.608c0-0.321,0.022-0.64,0.063-0.95h-27.593
			c-4.188,0-7.591,3.403-7.591,7.591c0,4.187,3.404,7.592,7.591,7.592h42.591c0.978,0,1.913-0.188,2.772-0.527
			C726.27,160.556,723.729,158.737,722.598,156.143z M692.249,155.636h-6.901c-1.086,0-1.971-0.886-1.971-1.972
			c0-1.087,0.885-1.972,1.971-1.972h6.901c1.088,0,1.973,0.885,1.973,1.972C694.221,154.751,693.336,155.636,692.249,155.636z"/>
		<path fill="#FFFFFF" d="M683.771,125.765h42.591c4.185,0,7.589-3.406,7.589-7.592c0-4.188-3.404-7.592-7.589-7.592h-42.591
			c-4.188,0-7.593,3.404-7.593,7.592C676.18,122.358,679.585,125.765,683.771,125.765z M723.01,115.659
			c1.385,0,2.514,1.129,2.514,2.515c0,1.387-1.129,2.515-2.514,2.515c-1.388,0-2.516-1.128-2.516-2.515
			C720.494,116.788,721.623,115.659,723.01,115.659z M685.348,116.202h6.901c1.088,0,1.973,0.884,1.973,1.972
			s-0.885,1.972-1.973,1.972h-6.901c-1.086,0-1.971-0.884-1.971-1.972S684.262,116.202,685.348,116.202z"/>
		<path fill="#FFFFFF" d="M729.531,149.471c-1.162,0-2.199,0.545-2.87,1.395l-4.54-2.176c0.257-0.501,0.402-1.063,0.402-1.666
			c0-0.539-0.119-1.051-0.329-1.513l4.559-2.129c0.66,0.638,1.554,1.029,2.54,1.029c2.02,0,3.663-1.646,3.663-3.665
			c0-2.021-1.644-3.665-3.663-3.665c-2.021,0-3.665,1.644-3.665,3.665c0,0.321,0.044,0.63,0.123,0.931l-4.892,2.28
			c-0.576-0.378-1.264-0.601-2.001-0.601c-2.021,0-3.665,1.646-3.665,3.665c0,2.021,1.646,3.665,3.665,3.665
			c0.669,0,1.297-0.183,1.836-0.497l5.202,2.494c-0.019,0.146-0.03,0.297-0.03,0.448c0,2.021,1.645,3.665,3.665,3.665
			c2.02,0,3.667-1.645,3.667-3.665C733.198,151.113,731.552,149.471,729.531,149.471z"/>
	</g>
</g>
<polyline id="SparkToHadoop_b" fill="none" stroke="#429F88" stroke-width="8" stroke-miterlimit="10" points="582.871,594.462 
	583,475.462 1019.999,475.462 1019.871,175.461 "/>
<polyline id="SparkToNo_sql_b" fill="none" stroke="#429F88" stroke-width="8" stroke-miterlimit="10" points="882.871,596.061 
	882.955,475.567 1020.999,475.061 1020.871,175.061 "/>
<polyline id="SparkToMdb_b" fill="none" stroke="#429F88" stroke-width="8" stroke-miterlimit="10" points="1198.307,596.061 
	1198.436,475.061 1021.055,475.462 1020.307,175.061 "/>
<polyline id="SparkToHadoop" fill="none" stroke="#FFFFFF" stroke-width="5" stroke-miterlimit="10" points="582.871,594.462 
	583,475.462 1019.999,475.462 1019.871,175.461 "/>
<polyline id="SparkToNo_sql" fill="none" stroke="#FFFFFF" stroke-width="5" stroke-miterlimit="10" points="882.871,596.061 
	882.955,475.567 1020.999,475.061 1020.871,175.061 "/>
<polyline id="SparkToMdb" fill="none" stroke="#429F88" stroke-width="8" stroke-miterlimit="10" points="1198.307,596.061 
	1198.436,475.061 1021.055,475.462 1020.307,175.061 "/>
<text transform="matrix(1 0 0 1 362.1958 88.2234)" fill="#DCDDDD" font-family="'NotoSansCJKkr-Medium-KSCpc-EUC-H'" font-size="14">Adapter</text>
<text transform="matrix(1 0 0 1 143.1206 163.6179)" fill="#DCDDDD" font-family="'NotoSansCJKkr-Medium-KSCpc-EUC-H'" font-size="14">Manager</text>
<text transform="matrix(1 0 0 1 90.9175 375.6179)" fill="#DCDDDD" font-family="'NotoSansCJKkr-Medium-KSCpc-EUC-H'" font-size="14">WAS</text>
<text transform="matrix(1 0 0 1 280.2085 375.6179)" fill="#DCDDDD" font-family="'NotoSansCJKkr-Medium-KSCpc-EUC-H'" font-size="14">DB Server</text>
<text transform="matrix(1 0 0 1 257.3765 694.2234)" fill="#DCDDDD" font-family="'NotoSansCJKkr-Medium-KSCpc-EUC-H'" font-size="14">RDB</text>
<text transform="matrix(1 0 0 1 538.1797 693.2234)" fill="#DCDDDD" font-family="'NotoSansCJKkr-Medium-KSCpc-EUC-H'" font-size="14">Hadoop</text>
<text transform="matrix(1 0 0 1 846.5381 693.2234)" fill="#DCDDDD" font-family="'NanumGothicEcoBold'" font-size="14">No-SQL DB</text>
<text transform="matrix(1 0 0 1 1180.9805 693.2234)" fill="#DCDDDD" font-family="'NotoSansCJKkr-Medium-KSCpc-EUC-H'" font-size="14">MDB</text>
<text transform="matrix(1 0 0 1 685.6382 88.2234)" fill="#DCDDDD" font-family="'NotoSansCJKkr-Medium-KSCpc-EUC-H'" font-size="14">Kafka</text>
<text transform="matrix(1 0 0 1 1003.3672 88.2234)" fill="#DCDDDD" font-family="'NotoSansCJKkr-Medium-KSCpc-EUC-H'" font-size="14">Spark</text>
<text transform="matrix(1 0 0 1 1309.9805 88.2234)" fill="#DCDDDD" font-family="'NotoSansCJKkr-Medium-KSCpc-EUC-H'" font-size="14">R-Kafka</text>
<text transform="matrix(1 0 0 1 301.3315 609.2683)" fill="#898989" font-family="'NotoSansCJKkr-Medium-KSCpc-EUC-H'" font-size="14">Session </text>
<text transform="matrix(1 0 0 1 355.6924 609.2683)" fill="#F27825" font-family="'NotoSansCJKkr-Medium-KSCpc-EUC-H'" font-size="14"> 4</text>
<text transform="matrix(1 0 0 1 301.3315 626.0671)" fill="#898989" font-family="'NotoSansCJKkr-Medium-KSCpc-EUC-H'" font-size="14">Session(long) </text>
<text transform="matrix(1 0 0 1 395.2275 626.0671)" fill="#F27825" font-family="'NotoSansCJKkr-Medium-KSCpc-EUC-H'" font-size="14"> 0</text>
<text transform="matrix(1 0 0 1 1251.0332 609.2683)" fill="#898989" font-family="'NotoSansCJKkr-Medium-KSCpc-EUC-H'" font-size="14">Session </text>
<text transform="matrix(1 0 0 1 1305.3936 609.2683)" fill="#F27825" font-family="'NotoSansCJKkr-Medium-KSCpc-EUC-H'" font-size="14"> 4</text>
<text transform="matrix(1 0 0 1 1251.0332 626.0671)" fill="#898989" font-family="'NotoSansCJKkr-Medium-KSCpc-EUC-H'" font-size="14">Session(long) </text>
<text transform="matrix(1 0 0 1 1344.9287 626.0671)" fill="#F27825" font-family="'NotoSansCJKkr-Medium-KSCpc-EUC-H'" font-size="14"> 0</text>
<text transform="matrix(1 0 0 1 937.0322 608.946)" fill="#898989" font-family="'NotoSansCJKkr-Medium-KSCpc-EUC-H'" font-size="14">QR </text>
<text transform="matrix(1 0 0 1 959.9082 608.946)" fill="#F27825" font-family="'NotoSansCJKkr-Medium-KSCpc-EUC-H'" font-size="14"> 10</text>
<text transform="matrix(1 0 0 1 937.0322 625.7449)" fill="#898989" font-family="'NotoSansCJKkr-Medium-KSCpc-EUC-H'" font-size="14">QW </text>
<text transform="matrix(1 0 0 1 963.2539 625.7449)" fill="#F27825" font-family="'NotoSansCJKkr-Medium-KSCpc-EUC-H'" font-size="14"> 0</text>
<text transform="matrix(1 0 0 1 937.0322 642.5457)" fill="#898989" font-family="'NotoSansCJKkr-Medium-KSCpc-EUC-H'" font-size="14">AR </text>
<text transform="matrix(1 0 0 1 958.0605 642.5457)" fill="#F27825" font-family="'NotoSansCJKkr-Medium-KSCpc-EUC-H'" font-size="14"> 1</text>
<text transform="matrix(1 0 0 1 937.0322 659.3464)" fill="#898989" font-family="'NotoSansCJKkr-Medium-KSCpc-EUC-H'" font-size="14">AW </text>
<text transform="matrix(1 0 0 1 961.4063 659.3464)" fill="#F27825" font-family="'NotoSansCJKkr-Medium-KSCpc-EUC-H'" font-size="14"> 1</text>
<text transform="matrix(1 0 0 1 937.0322 676.1453)" fill="#898989" font-family="'NotoSansCJKkr-Medium-KSCpc-EUC-H'" font-size="14">Conn </text>
<text transform="matrix(1 0 0 1 975.2939 676.1453)" fill="#F27825" font-family="'NotoSansCJKkr-Medium-KSCpc-EUC-H'" font-size="14"> 7</text>
<text transform="matrix(1 0 0 1 612.6772 608.946)" fill="#898989" font-family="'NotoSansCJKkr-Medium-KSCpc-EUC-H'" font-size="14">Used </text>
<text transform="matrix(1 0 0 1 649.5376 608.946)" fill="#F27825" font-family="'NotoSansCJKkr-Medium-KSCpc-EUC-H'" font-size="14"> 215</text>
<text transform="matrix(1 0 0 1 612.6772 625.7449)" fill="#898989" font-family="'NotoSansCJKkr-Medium-KSCpc-EUC-H'" font-size="14">Read </text>
<text transform="matrix(1 0 0 1 649.7778 625.7449)" fill="#F27825" font-family="'NotoSansCJKkr-Medium-KSCpc-EUC-H'" font-size="14"> 134 MB/s</text>
<text transform="matrix(1 0 0 1 612.6772 642.5457)" fill="#898989" font-family="'NotoSansCJKkr-Medium-KSCpc-EUC-H'" font-size="14">Write</text>
<text transform="matrix(1 0 0 1 648.3911 642.5457)" fill="#F27825" font-family="'NotoSansCJKkr-Medium-KSCpc-EUC-H'" font-size="14"> 53MB/s</text>
<g id="AdapterSpeed">
<path fill="#416CB4" d="M588.704,125.264c0,1.289-1.043,2.333-2.333,2.333h-78.782c-1.288,0-2.333-1.044-2.333-2.333v-17.271
	c0-1.289,1.045-2.333,2.333-2.333h78.782c1.29,0,2.333,1.044,2.333,2.333V125.264z"/>
<text transform="matrix(1 0 0 1 518.6382 121.8582)" fill="#DCDDDD" font-family="'NotoSansCJKkr-Medium-KSCpc-EUC-H'" font-size="14">122 KB/s</text>
</g>
<g id="KafkaSpeed">
<path fill="#416CB4" d="M905.432,125.264c0,1.289-1.043,2.333-2.334,2.333h-78.779c-1.289,0-2.334-1.044-2.334-2.333v-17.271
	c0-1.289,1.045-2.333,2.334-2.333h78.779c1.291,0,2.334,1.044,2.334,2.333V125.264z"/>
<text transform="matrix(1 0 0 1 835.3652 121.8582)" fill="#DCDDDD" font-family="'NotoSansCJKkr-Medium-KSCpc-EUC-H'" font-size="14">236 KB/s</text>
</g>
<g id="SparkSpeed">
<path fill="#416CB4" d="M1220.596,125.264c0,1.289-1.043,2.333-2.334,2.333h-78.781c-1.287,0-2.334-1.044-2.334-2.333v-17.271
	c0-1.289,1.047-2.333,2.334-2.333h78.781c1.291,0,2.334,1.044,2.334,2.333V125.264z"/>
<text transform="matrix(1 0 0 1 1150.5293 121.8582)" fill="#DCDDDD" font-family="'NotoSansCJKkr-Medium-KSCpc-EUC-H'" font-size="14">198 KB/s</text>
</g>
<g>
	<path fill="#416CB4" d="M849.816,509.264c0,1.289-1.043,2.332-2.334,2.332H740.701c-1.289,0-2.334-1.043-2.334-2.332v-17.271
		c0-1.289,1.045-2.334,2.334-2.334h106.781c1.291,0,2.334,1.045,2.334,2.334V509.264z"/>
	
		<text transform="matrix(1 0 0 1 786.75 505.8582)" fill="#DCDDDD" font-family="'NotoSansCJKkr-Medium-KSCpc-EUC-H'" font-size="14">3MB/s</text>
	
		<text transform="matrix(1 0 0 1 746.3677 505.8582)" fill="#DCDDDD" font-family="'NotoSansCJKkr-Medium-KSCpc-EUC-H'" font-size="14">Out :</text>
</g>
<g>
	<path fill="#416CB4" d="M849.816,459.201c0,1.289-1.043,2.332-2.334,2.332H740.701c-1.289,0-2.334-1.043-2.334-2.332v-17.27
		c0-1.289,1.045-2.334,2.334-2.334h106.781c1.291,0,2.334,1.045,2.334,2.334V459.201z"/>
	
		<text transform="matrix(1 0 0 1 786.75 455.7957)" fill="#DCDDDD" font-family="'NotoSansCJKkr-Medium-KSCpc-EUC-H'" font-size="14">2MB/s</text>
	
		<text transform="matrix(1 0 0 1 755.3677 455.7957)" fill="#DCDDDD" font-family="'NotoSansCJKkr-Medium-KSCpc-EUC-H'" font-size="14">In :</text>
</g>
<g>
	<path fill="#418552" d="M675.743,242.49c0,1.289-1.043,2.333-2.334,2.333H566.628c-1.289,0-2.334-1.044-2.334-2.333v-17.27
		c0-1.289,1.045-2.333,2.334-2.333h106.781c1.291,0,2.334,1.044,2.334,2.333V242.49z"/>
	
		<text transform="matrix(1 0 0 1 612.6772 239.0857)" fill="#DCDDDD" font-family="'NotoSansCJKkr-Medium-KSCpc-EUC-H'" font-size="14">17/h</text>
	
		<text transform="matrix(1 0 0 1 571.2944 239.0857)" fill="#DCDDDD" font-family="'NotoSansCJKkr-Medium-KSCpc-EUC-H'" font-size="14"> :</text>
	<path fill="#418552" d="M675.743,273.49c0,1.289-1.043,2.333-2.334,2.333H566.628c-1.289,0-2.334-1.044-2.334-2.333v-17.27
		c0-1.289,1.045-2.333,2.334-2.333h106.781c1.291,0,2.334,1.044,2.334,2.333V273.49z"/>
	
		<text transform="matrix(1 0 0 1 612.6772 270.0847)" fill="#DCDDDD" font-family="'NotoSansCJKkr-Medium-KSCpc-EUC-H'" font-size="14">25/h</text>
	
		<text transform="matrix(1 0 0 1 571.2944 270.0847)" fill="#DCDDDD" font-family="'NotoSansCJKkr-Medium-KSCpc-EUC-H'" font-size="14"> :</text>
</g>
<path fill="none" d="M427.871,165.397c0,5.245-4.251,9.497-9.496,9.497h-58.959c-5.244,0-9.497-4.252-9.497-9.497v-58.958
	c0-5.245,4.253-9.497,9.497-9.497h58.959c5.245,0,9.496,4.252,9.496,9.497V165.397z"/>
<g>
	<g>
		
			<line id="AdapterToKafka" fill="none" stroke="#429884" stroke-width="6" stroke-miterlimit="10" stroke-dasharray="6.2757,6.2757" x1="427.871" y1="140.701" x2="651.738" y2="140.701"/>
		<g>
			<polygon fill="#429884" points="648.82,150.674 666.089,140.701 648.82,130.729 			"/>
		</g>
	</g>
</g>
<polyline id="R_KafkaToRdb_b" fill="none" stroke="#429884" stroke-width="8" stroke-miterlimit="10" points="1376.383,156.799 
	1430.246,156.799 1430.246,740.885 247.463,740.885 247.463,674.145 "/>
<polyline id="RdbToWas_b" fill="none" stroke="#429884" stroke-width="8" stroke-miterlimit="10" points="101.689,462.512 
	101.689,637.682 208.918,637.682 "/>
<polyline id="R_KafkaToRdb" fill="none" stroke="#FFFFFF" stroke-width="8" stroke-miterlimit="10" points="1376.383,156.799 
	1430.246,156.799 1430.246,740.885 247.463,740.885 247.463,674.145 "/>
<polyline id="RdbToWas" fill="none" stroke="#FFFFFF" stroke-width="8" stroke-miterlimit="10" points="101.689,462.512 
	101.689,637.682 208.918,637.682 "/>
</svg>
